<svg width="200" height="200" viewBox="0 0 200 200" fill="none" xmlns="http://www.w3.org/2000/svg">
  <defs>
    <linearGradient id="grad1" x1="0%" y1="0%" x2="100%" y2="100%">
      <stop offset="0%" style="stop-color:#00B8D4;stop-opacity:1" />
      <stop offset="100%" style="stop-color:#0099CC;stop-opacity:1" />
    </linearGradient>
  </defs>
  
  <!-- Background circle -->
  <circle cx="100" cy="100" r="100" fill="url(#grad1)"/>
  
  <!-- Doctor icon -->
  <g transform="translate(50, 40)">
    <!-- Heart monitor -->
    <rect x="35" y="30" width="30" height="20" rx="3" fill="white" opacity="0.9"/>
    <path d="M40 40 L45 35 L50 40 L55 35 L60 40 L65 35" stroke="white" stroke-width="2" fill="none"/>
    
    <!-- Doctor figure -->
    <circle cx="50" cy="65" r="12" fill="white" opacity="0.9"/>
    <rect x="42" y="77" width="16" height="20" fill="white" opacity="0.9"/>
    
    <!-- Stethoscope -->
    <path d="M50 45 Q60 35 70 45 Q80 55 70 65 Q60 75 50 65 Q40 55 50 45" fill="none" stroke="white" stroke-width="2"/>
    <circle cx="45" cy="60" r="2" fill="white"/>
    <circle cx="55" cy="60" r="2" fill="white"/>
  </g>
  
  <!-- Decorative elements -->
  <circle cx="25" cy="25" r="6" fill="white" opacity="0.3"/>
  <circle cx="175" cy="175" r="10" fill="white" opacity="0.2"/>
  <circle cx="165" cy="35" r="4" fill="white" opacity="0.4"/>
</svg> 