<svg width="200" height="200" viewBox="0 0 200 200" fill="none" xmlns="http://www.w3.org/2000/svg">
  <defs>
    <linearGradient id="grad1" x1="0%" y1="0%" x2="100%" y2="100%">
      <stop offset="0%" style="stop-color:#8B5CF6;stop-opacity:1" />
      <stop offset="100%" style="stop-color:#A855F7;stop-opacity:1" />
    </linearGradient>
  </defs>
  
  <!-- Background circle -->
  <circle cx="100" cy="100" r="100" fill="url(#grad1)"/>
  
  <!-- Doctor icon -->
  <g transform="translate(50, 40)">
    <!-- Brain/Neurology symbol -->
    <path d="M50 25 Q60 15 70 25 Q80 35 70 45 Q60 55 50 45 Q40 35 50 25" fill="white" opacity="0.9"/>
    <path d="M45 30 Q55 25 65 30" stroke="white" stroke-width="1.5" fill="none"/>
    <path d="M45 35 Q55 30 65 35" stroke="white" stroke-width="1.5" fill="none"/>
    <path d="M45 40 Q55 35 65 40" stroke="white" stroke-width="1.5" fill="none"/>
    
    <!-- Doctor figure -->
    <circle cx="50" cy="60" r="12" fill="white" opacity="0.9"/>
    <rect x="42" y="72" width="16" height="20" fill="white" opacity="0.9"/>
    
    <!-- Medical cross -->
    <rect x="48" y="80" width="4" height="8" fill="#8B5CF6"/>
    <rect x="44" y="84" width="12" height="4" fill="#8B5CF6"/>
  </g>
  
  <!-- Decorative elements -->
  <circle cx="30" cy="30" r="5" fill="white" opacity="0.3"/>
  <circle cx="170" cy="170" r="8" fill="white" opacity="0.2"/>
  <circle cx="160" cy="40" r="3" fill="white" opacity="0.4"/>
</svg> 