<svg width="200" height="200" viewBox="0 0 200 200" fill="none" xmlns="http://www.w3.org/2000/svg">
  <defs>
    <linearGradient id="grad1" x1="0%" y1="0%" x2="100%" y2="100%">
      <stop offset="0%" style="stop-color:#E17726;stop-opacity:1" />
      <stop offset="100%" style="stop-color:#FF8A56;stop-opacity:1" />
    </linearGradient>
    <linearGradient id="grad2" x1="0%" y1="0%" x2="100%" y2="100%">
      <stop offset="0%" style="stop-color:#00B8D4;stop-opacity:1" />
      <stop offset="100%" style="stop-color:#0099CC;stop-opacity:1" />
    </linearGradient>
  </defs>
  
  <!-- Background circle -->
  <circle cx="100" cy="100" r="100" fill="url(#grad1)"/>
  
  <!-- Doctor icon -->
  <g transform="translate(50, 40)">
    <!-- Stethoscope -->
    <path d="M50 20 Q60 10 70 20 Q80 30 70 40 Q60 50 50 40 Q40 30 50 20" fill="white" opacity="0.9"/>
    <circle cx="45" cy="35" r="3" fill="white"/>
    <circle cx="55" cy="35" r="3" fill="white"/>
    
    <!-- Doctor figure -->
    <circle cx="50" cy="60" r="15" fill="white" opacity="0.9"/>
    <rect x="40" y="75" width="20" height="25" fill="white" opacity="0.9"/>
    
    <!-- Medical cross -->
    <rect x="48" y="85" width="4" height="12" fill="#E17726"/>
    <rect x="42" y="91" width="16" height="4" fill="#E17726"/>
  </g>
  
  <!-- Decorative elements -->
  <circle cx="30" cy="30" r="8" fill="white" opacity="0.3"/>
  <circle cx="170" cy="170" r="12" fill="white" opacity="0.2"/>
  <circle cx="160" cy="40" r="6" fill="white" opacity="0.4"/>
</svg> 