<svg width="400" height="300" viewBox="0 0 400 300" fill="none" xmlns="http://www.w3.org/2000/svg">
  <defs>
    <linearGradient id="bgGrad" x1="0%" y1="0%" x2="100%" y2="100%">
      <stop offset="0%" style="stop-color:#E17726;stop-opacity:0.1" />
      <stop offset="100%" style="stop-color:#00B8D4;stop-opacity:0.1" />
    </linearGradient>
    <linearGradient id="cardGrad" x1="0%" y1="0%" x2="100%" y2="100%">
      <stop offset="0%" style="stop-color:#FFFFFF;stop-opacity:0.9" />
      <stop offset="100%" style="stop-color:#F8FAFC;stop-opacity:0.9" />
    </linearGradient>
  </defs>
  
  <!-- Background -->
  <rect width="400" height="300" fill="url(#bgGrad)"/>
  
  <!-- Doctor -->
  <g transform="translate(80, 60)">
    <circle cx="30" cy="30" r="25" fill="#E17726"/>
    <rect x="15" y="55" width="30" height="40" fill="#E17726"/>
    <!-- Stethoscope -->
    <path d="M30 20 Q40 10 50 20 Q60 30 50 40 Q40 50 30 40 Q20 30 30 20" fill="none" stroke="white" stroke-width="3"/>
    <circle cx="25" cy="35" r="4" fill="white"/>
    <circle cx="35" cy="35" r="4" fill="white"/>
  </g>
  
  <!-- Patient -->
  <g transform="translate(280, 80)">
    <circle cx="25" cy="25" r="20" fill="#00B8D4"/>
    <rect x="12" y="45" width="26" height="35" fill="#00B8D4"/>
    <!-- Heart -->
    <path d="M25 15 Q30 10 35 15 Q40 20 35 25 Q30 30 25 25 Q20 20 25 15" fill="white"/>
  </g>
  
  <!-- Video call interface -->
  <rect x="50" y="180" width="300" height="80" rx="15" fill="url(#cardGrad)" stroke="#E17726" stroke-width="2"/>
  
  <!-- Video screens -->
  <rect x="70" y="200" width="120" height="50" rx="8" fill="#E17726" opacity="0.8"/>
  <rect x="210" y="200" width="120" height="50" rx="8" fill="#00B8D4" opacity="0.8"/>
  
  <!-- Connection lines -->
  <path d="M190 225 Q200 225 210 225" stroke="#E17726" stroke-width="3" stroke-dasharray="5,5"/>
  
  <!-- Medical icons -->
  <g transform="translate(320, 40)">
    <circle cx="15" cy="15" r="15" fill="#10B981"/>
    <path d="M10 15 L13 18 L20 11" stroke="white" stroke-width="2" fill="none"/>
  </g>
  
  <g transform="translate(50, 40)">
    <circle cx="15" cy="15" r="15" fill="#F59E0B"/>
    <path d="M10 10 L20 20 M20 10 L10 20" stroke="white" stroke-width="2"/>
  </g>
</svg> 